<svg xmlns="http://www.w3.org/2000/svg" width="1000" height="600" viewBox="0 0 1000 600" data-view="pov" data-look="limit_point"><rect x="0" y="0" width="1000" height="600" fill="#aec6de" data-stage="1-sky"/><polygon points="3500,300 -2500,300 -2500,6300 3500,6300" fill="#7f8f63" data-stage="1-ground"/><g data-stage="2-road-surface"><polygon points="373.46,335.19 347.98,334.46 205.19,341.37 232.22,342.44" fill="#9a9a9a" stroke="#9a9a9a" stroke-width="0.5"/><polygon points="412.94,336.34 373.46,335.19 232.22,342.44 274.56,344.11" fill="#9a9a9a" stroke="#9a9a9a" stroke-width="0.5"/><polygon points="455.07,337.56 412.94,336.34 274.56,344.11 320.38,345.93" fill="#9a9a9a" stroke="#9a9a9a" stroke-width="0.5"/><polygon points="500.14,338.87 455.07,337.56 320.38,345.93 370.13,347.9" fill="#9a9a9a" stroke="#9a9a9a" stroke-width="0.5"/><polygon points="548.45,340.27 500.14,338.87 370.13,347.9 424.35,350.04" fill="#9a9a9a" stroke="#9a9a9a" stroke-width="0.5"/><polygon points="600.39,341.78 548.45,340.27 424.35,350.04 483.65,352.39" fill="#9a9a9a" stroke="#9a9a9a" stroke-width="0.5"/><polygon points="656.36,343.4 600.39,341.78 483.65,352.39 548.79,354.97" fill="#9a9a9a" stroke="#9a9a9a" stroke-width="0.5"/><polygon points="731.62,345.83 656.36,343.4 548.79,354.97 600.15,357.19" fill="#9a9a9a" stroke="#9a9a9a" stroke-width="0.5"/><polygon points="815.64,349.56 731.62,345.83 600.15,357.19 641.96,359.85" fill="#9a9a9a" stroke="#9a9a9a" stroke-width="0.5"/><polygon points="902.34,354.66 815.64,349.56 641.96,359.85 681.52,363.39" fill="#9a9a9a" stroke="#9a9a9a" stroke-width="0.5"/><polygon points="993.45,361.49 902.34,354.66 681.52,363.39 717.67,367.91" fill="#9a9a9a" stroke="#9a9a9a" stroke-width="0.5"/><polygon points="1090.95,370.67 993.45,361.49 717.67,367.91 748.91,373.54" fill="#9a9a9a" stroke="#9a9a9a" stroke-width="0.5"/><polygon points="1197.35,383.17 1090.95,370.67 748.91,373.54 773.28,380.46" fill="#9a9a9a" stroke="#9a9a9a" stroke-width="0.5"/><polygon points="1316.02,400.61 1197.35,383.17 773.28,380.46 788.06,388.85" fill="#9a9a9a" stroke="#9a9a9a" stroke-width="0.5"/><polygon points="1451.83,425.85 1316.02,400.61 788.06,388.85 789.56,398.95" fill="#9a9a9a" stroke="#9a9a9a" stroke-width="0.5"/><polygon points="1612.47,464.36 1451.83,425.85 789.56,398.95 772.86,410.97" fill="#9a9a9a" stroke="#9a9a9a" stroke-width="0.5"/><polygon points="1811.8,527.96 1612.47,464.36 772.86,410.97 731.6,425.07" fill="#9a9a9a" stroke="#9a9a9a" stroke-width="0.5"/><polygon points="2080.06,647.19 1811.8,527.96 731.6,425.07 658.13,441.25" fill="#9a9a9a" stroke="#9a9a9a" stroke-width="0.5"/><polygon points="2511.16,930.87 2080.06,647.19 658.13,441.25 544.24,459.24" fill="#9a9a9a" stroke="#9a9a9a" stroke-width="0.5"/><polygon points="3784.66,2237.12 2511.16,930.87 544.24,459.24 383.06,478.22" fill="#9a9a9a" stroke="#9a9a9a" stroke-width="0.5"/></g><g data-stage="3-lane-markings"><polyline points="3784.66,2237.12 2511.16,930.87 2080.06,647.19 1811.8,527.96 1612.47,464.36 1451.83,425.85 1316.02,400.61 1197.35,383.17 1090.95,370.67 993.45,361.49 902.34,354.66 815.64,349.56 731.62,345.83 656.36,343.4 600.39,341.78 548.45,340.27 500.14,338.87 455.07,337.56 412.94,336.34 373.46,335.19 347.98,334.46" fill="none" stroke="#e8e8e8" stroke-width="2"/><polyline points="172.47,496.71 383.06,478.22 544.24,459.24 658.13,441.25 731.6,425.07 772.86,410.97 789.56,398.95 788.06,388.85 773.28,380.46 748.91,373.54 717.67,367.91 681.52,363.39 641.96,359.85 600.15,357.19 548.79,354.97 483.65,352.39 424.35,350.04 370.13,347.9 320.38,345.93 274.56,344.11 232.22,342.44 205.19,341.37" fill="none" stroke="#e8e8e8" stroke-width="2"/><polyline points="172.47,719.56 669.64,626.4 940.65,554.29 1069.33,500.81 1114.28,461.52 1111.25,432.49 1081.07,410.79 1035.65,394.37 981.8,381.79 923.33,372.08 862.4,364.54 800.1,358.7 736.97,354.22 673.14,350.89 608.9,348.51 548.6,346.49 493.11,344.63 441.9,342.91 394.47,341.33 350.43,339.85 309.43,338.48 283.09,337.6" fill="none" stroke="#e8e8e8" stroke-width="2"/></g><g data-stage="5-sight-band"><polygon points="373.46,335.19 347.98,334.46 205.19,341.37 232.22,342.44" fill="#ffffff" fill-opacity="0.12" stroke="none"/><polygon points="412.94,336.34 373.46,335.19 232.22,342.44 274.56,344.11" fill="#ffffff" fill-opacity="0.12" stroke="none"/><polygon points="455.07,337.56 412.94,336.34 274.56,344.11 320.38,345.93" fill="#ffffff" fill-opacity="0.12" stroke="none"/><polygon points="500.14,338.87 455.07,337.56 320.38,345.93 370.13,347.9" fill="#ffffff" fill-opacity="0.12" stroke="none"/><polygon points="548.45,340.27 500.14,338.87 370.13,347.9 424.35,350.04" fill="#ffffff" fill-opacity="0.12" stroke="none"/><polygon points="600.39,341.78 548.45,340.27 424.35,350.04 483.65,352.39" fill="#ffffff" fill-opacity="0.12" stroke="none"/><polygon points="656.36,343.4 600.39,341.78 483.65,352.39 548.79,354.97" fill="#ffffff" fill-opacity="0.12" stroke="none"/><polygon points="731.62,345.83 656.36,343.4 548.79,354.97 600.15,357.19" fill="#ffffff" fill-opacity="0.12" stroke="none"/><polygon points="815.64,349.56 731.62,345.83 600.15,357.19 641.96,359.85" fill="#ffffff" fill-opacity="0.12" stroke="none"/><polygon points="902.34,354.66 815.64,349.56 641.96,359.85 681.52,363.39" fill="#ffffff" fill-opacity="0.12" stroke="none"/><polygon points="993.45,361.49 902.34,354.66 681.52,363.39 717.67,367.91" fill="#ffffff" fill-opacity="0.12" stroke="none"/><polygon points="1090.95,370.67 993.45,361.49 717.67,367.91 748.91,373.54" fill="#ffffff" fill-opacity="0.12" stroke="none"/><polygon points="1197.35,383.17 1090.95,370.67 748.91,373.54 773.28,380.46" fill="#ffffff" fill-opacity="0.12" stroke="none"/><polygon points="1316.02,400.61 1197.35,383.17 773.28,380.46 788.06,388.85" fill="#ffffff" fill-opacity="0.12" stroke="none"/><polygon points="1451.83,425.85 1316.02,400.61 788.06,388.85 789.56,398.95" fill="#ffffff" fill-opacity="0.12" stroke="none"/><polygon points="1612.47,464.36 1451.83,425.85 789.56,398.95 772.86,410.97" fill="#ffffff" fill-opacity="0.12" stroke="none"/><polygon points="1811.8,527.96 1612.47,464.36 772.86,410.97 731.6,425.07" fill="#ffffff" fill-opacity="0.12" stroke="none"/><polygon points="2080.06,647.19 1811.8,527.96 731.6,425.07 658.13,441.25" fill="#ffffff" fill-opacity="0.12" stroke="none"/><polygon points="2511.16,930.87 2080.06,647.19 658.13,441.25 544.24,459.24" fill="#ffffff" fill-opacity="0.12" stroke="none"/><polygon points="3784.66,2237.12 2511.16,930.87 544.24,459.24 383.06,478.22" fill="#ffffff" fill-opacity="0.12" stroke="none"/></g><g data-stage="6-path"><polyline points="2617,2081.48 2524.5,1585.51 2435.9,1290.04 2352.27,1095.17 2273.64,957.77 2199.77,856.2 2130.34,778.43 2064.95,717.21 2003.31,667.97 1945.07,627.64 1889.94,594.11 1837.67,565.88 1788.02,541.85 1740.76,521.19 1695.71,503.3 1652.68,487.67 1611.53,473.94 1572.1,461.79 1534.27,451 1497.91,441.37 1462.92,432.72 1429.19,424.93 1396.65,417.89 1365.19,411.5 1334.74,405.68 1305.24,400.37 1276.61,395.51 1248.8,391.05 1221.75,386.95 1195.39,383.16 1169.7,379.66 1169.09,379.58" fill="none" stroke="#b32e2e" stroke-width="3" stroke-opacity="0.9"/><line x1="972" y1="356.14" x2="997.82" y2="359.21" stroke="#b32e2e" stroke-width="4" data-path-offframe="true"/><polyline points="988.93,366.21 997.82,359.21 990.82,350.32" fill="none" stroke="#b32e2e" stroke-width="4"/><text x="946.18" y="353.07" font-family="sans-serif" font-size="14" fill="#b32e2e" text-anchor="middle" paint-order="stroke" stroke="#ffffff" stroke-width="3" stroke-opacity="0.8">your line</text></g><g data-stage="7-limit-marker"><polyline points="302.95,344.36 316.95,327.56 330.95,344.36" fill="none" stroke="#111111" stroke-width="3" stroke-linejoin="round" data-marker="limit_point" data-marker-state="placed" data-trend="closing"/></g><g data-stage="9-rider-anchor"><path d="M 0,566 L 0,520 Q -60,536 170,560 L 170,566 Z" fill="#22262b" fill-opacity="0.9"/><line x1="-35" y1="526" x2="90" y2="486" stroke="#22262b" stroke-width="7" stroke-linecap="round" stroke-opacity="0.9"/><g transform="rotate(-12 90 470)"><rect x="56" y="451" width="68" height="38" rx="12" fill="#22262b" fill-opacity="0.92"/><rect x="62" y="457" width="56" height="26" rx="9" fill="#5b6673" fill-opacity="0.85"/></g><path d="M 1000,566 L 1000,520 Q 1060,536 830,560 L 830,566 Z" fill="#22262b" fill-opacity="0.9"/><line x1="1035" y1="526" x2="910" y2="486" stroke="#22262b" stroke-width="7" stroke-linecap="round" stroke-opacity="0.9"/><g transform="rotate(12 910 470)"><rect x="876" y="451" width="68" height="38" rx="12" fill="#22262b" fill-opacity="0.92"/><rect x="882" y="457" width="56" height="26" rx="9" fill="#5b6673" fill-opacity="0.85"/></g></g><g data-stage="8-hud"><line x1="2882.16" y1="290.39" x2="2876.61" y2="309.61" stroke="#333333" stroke-width="2" data-heading-tick="true"/><rect x="0" y="566" width="1000" height="34" fill="#101418" fill-opacity="0.72"/><text x="10" y="588" font-family="sans-serif" font-size="15" fill="#e8e8e8" data-hud="true" data-v-kmh="32.09" data-lean-deg="-16.09" data-sight-m="20.37" data-ssd-m="15.18">32 km/h   lean 16° left   see 20 m · need 15 m to stop · 5 m spare</text><g data-lean-dial="-16.09"><rect x="910" y="18" width="72" height="86" rx="10" fill="#101418" fill-opacity="0.55"/><line x1="920" y1="54" x2="972" y2="54" stroke="#e8e8e8" stroke-width="2" stroke-opacity="0.6"/><line x1="946" y1="54" x2="953.2" y2="29.02" stroke="#e8e8e8" stroke-width="3"/><circle cx="946" cy="54" r="3.5" fill="#e8e8e8"/><text x="946" y="94" font-family="sans-serif" font-size="13" fill="#e8e8e8" text-anchor="middle">16°</text></g><text x="990" y="22" font-family="sans-serif" font-size="14" fill="#e8e8e8" text-anchor="end" data-look-chip="true">look: limit point</text></g></svg>