<svg xmlns="http://www.w3.org/2000/svg" width="1000" height="600" viewBox="0 0 1000 600" data-view="pov" data-look="limit_point"><rect x="0" y="0" width="1000" height="600" fill="#aec6de" data-stage="1-sky"/><polygon points="3500,300 -2500,300 -2500,6300 3500,6300" fill="#7f8f63" data-stage="1-ground"/><g data-stage="2-road-surface"><polygon points="565.48,347.95 556.44,345.54 324.65,347.17 321.3,349.76" fill="#9a9a9a" stroke="#9a9a9a" stroke-width="0.5"/><polygon points="580.78,352.03 565.48,347.95 321.3,349.76 315.61,354.16" fill="#9a9a9a" stroke="#9a9a9a" stroke-width="0.5"/><polygon points="598.93,356.87 580.78,352.03 315.61,354.16 308.8,359.43" fill="#9a9a9a" stroke="#9a9a9a" stroke-width="0.5"/><polygon points="620.81,362.7 598.93,356.87 308.8,359.43 300.53,365.82" fill="#9a9a9a" stroke="#9a9a9a" stroke-width="0.5"/><polygon points="647.68,369.87 620.81,362.7 300.53,365.82 290.27,373.76" fill="#9a9a9a" stroke="#9a9a9a" stroke-width="0.5"/><polygon points="681.49,378.88 647.68,369.87 290.27,373.76 277.19,383.88" fill="#9a9a9a" stroke="#9a9a9a" stroke-width="0.5"/><polygon points="725.31,390.56 681.49,378.88 277.19,383.88 259.95,397.22" fill="#9a9a9a" stroke="#9a9a9a" stroke-width="0.5"/><polygon points="784.36,406.31 725.31,390.56 259.95,397.22 236.19,415.6" fill="#9a9a9a" stroke="#9a9a9a" stroke-width="0.5"/><polygon points="880.16,434.38 784.36,406.31 236.19,415.6 204.06,436.37" fill="#9a9a9a" stroke="#9a9a9a" stroke-width="0.5"/><polygon points="1009.65,488.04 880.16,434.38 204.06,436.37 137.63,462.12" fill="#9a9a9a" stroke="#9a9a9a" stroke-width="0.5"/><polygon points="1204.82,608.05 1009.65,488.04 137.63,462.12 9.8,498.72" fill="#9a9a9a" stroke="#9a9a9a" stroke-width="0.5"/><polygon points="1725.65,1078.67 1204.82,608.05 9.8,498.72 -222.49,552.77" fill="#9a9a9a" stroke="#9a9a9a" stroke-width="0.5"/></g><g data-stage="3-lane-markings"><polyline points="1725.65,1078.67 1204.82,608.05 1009.65,488.04 880.16,434.38 784.36,406.31 725.31,390.56 681.49,378.88 647.68,369.87 620.81,362.7 598.93,356.87 580.78,352.03 565.48,347.95 556.44,345.54" fill="none" stroke="#e8e8e8" stroke-width="2"/><polyline points="-644.39,636.68 -222.49,552.77 9.8,498.72 137.63,462.12 204.06,436.37 236.19,415.6 259.95,397.22 277.19,383.88 290.27,373.76 300.53,365.82 308.8,359.43 315.61,354.16 321.3,349.76 324.65,347.17" fill="none" stroke="#e8e8e8" stroke-width="2"/><polyline points="-644.4,1114.23 254.93,681.65 478.42,541.59 541.36,474.12 544.6,435.37 521.75,410.76 500.87,393.77 485.55,381.31 473.82,371.76 464.56,364.23 457.05,358.12 450.85,353.08 445.64,348.84 442.57,346.34" fill="none" stroke="#e8e8e8" stroke-width="2"/></g><g data-stage="5-sight-band"><polygon points="565.48,347.95 556.44,345.54 324.65,347.17 321.3,349.76" fill="#ffffff" fill-opacity="0.12" stroke="none"/><polygon points="580.78,352.03 565.48,347.95 321.3,349.76 315.61,354.16" fill="#ffffff" fill-opacity="0.12" stroke="none"/><polygon points="598.93,356.87 580.78,352.03 315.61,354.16 308.8,359.43" fill="#ffffff" fill-opacity="0.12" stroke="none"/><polygon points="620.81,362.7 598.93,356.87 308.8,359.43 300.53,365.82" fill="#ffffff" fill-opacity="0.12" stroke="none"/><polygon points="647.68,369.87 620.81,362.7 300.53,365.82 290.27,373.76" fill="#ffffff" fill-opacity="0.12" stroke="none"/><polygon points="681.49,378.88 647.68,369.87 290.27,373.76 277.19,383.88" fill="#ffffff" fill-opacity="0.12" stroke="none"/><polygon points="725.31,390.56 681.49,378.88 277.19,383.88 259.95,397.22" fill="#ffffff" fill-opacity="0.12" stroke="none"/><polygon points="784.36,406.31 725.31,390.56 259.95,397.22 236.19,415.6" fill="#ffffff" fill-opacity="0.12" stroke="none"/><polygon points="880.16,434.38 784.36,406.31 236.19,415.6 204.06,436.37" fill="#ffffff" fill-opacity="0.12" stroke="none"/><polygon points="1009.65,488.04 880.16,434.38 204.06,436.37 137.63,462.12" fill="#ffffff" fill-opacity="0.12" stroke="none"/><polygon points="1204.82,608.05 1009.65,488.04 137.63,462.12 9.8,498.72" fill="#ffffff" fill-opacity="0.12" stroke="none"/><polygon points="1725.65,1078.67 1204.82,608.05 9.8,498.72 -222.49,552.77" fill="#ffffff" fill-opacity="0.12" stroke="none"/></g><g data-stage="6-path"><polyline points="1606.08,1838.53 1591.07,1305.24 1578.57,1038.96 1571.61,926.55" fill="none" stroke="#b32e2e" stroke-width="3" stroke-opacity="0.9"/><line x1="965.21" y1="572" x2="987.66" y2="585.12" stroke="#b32e2e" stroke-width="4" data-path-offframe="true"/><polyline points="976.72,587.99 987.66,585.12 984.79,574.18" fill="none" stroke="#b32e2e" stroke-width="4"/><text x="942.77" y="558.88" font-family="sans-serif" font-size="14" fill="#b32e2e" text-anchor="middle" paint-order="stroke" stroke="#ffffff" stroke-width="3" stroke-opacity="0.8">your line</text></g><g data-stage="7-limit-marker"><polyline points="486,354.34 500,337.54 514,354.34" fill="none" stroke="#111111" stroke-width="3" stroke-linejoin="round" data-marker="limit_point" data-marker-state="placed" data-trend="closing"/></g><g data-stage="9-rider-anchor"><path d="M 0,566 L 0,520 Q -60,536 170,560 L 170,566 Z" fill="#22262b" fill-opacity="0.9"/><line x1="-35" y1="526" x2="90" y2="486" stroke="#22262b" stroke-width="7" stroke-linecap="round" stroke-opacity="0.9"/><g transform="rotate(-12 90 470)"><rect x="56" y="451" width="68" height="38" rx="12" fill="#22262b" fill-opacity="0.92"/><rect x="62" y="457" width="56" height="26" rx="9" fill="#5b6673" fill-opacity="0.85"/></g><path d="M 1000,566 L 1000,520 Q 1060,536 830,560 L 830,566 Z" fill="#22262b" fill-opacity="0.9"/><line x1="1035" y1="526" x2="910" y2="486" stroke="#22262b" stroke-width="7" stroke-linecap="round" stroke-opacity="0.9"/><g transform="rotate(12 910 470)"><rect x="876" y="451" width="68" height="38" rx="12" fill="#22262b" fill-opacity="0.92"/><rect x="882" y="457" width="56" height="26" rx="9" fill="#5b6673" fill-opacity="0.85"/></g></g><g data-stage="8-hud"><line x1="1647.42" y1="290.49" x2="1641.25" y2="309.51" stroke="#333333" stroke-width="2" data-heading-tick="true"/><rect x="0" y="566" width="1000" height="34" fill="#101418" fill-opacity="0.72"/><text x="10" y="588" font-family="sans-serif" font-size="15" fill="#f4b3b0" data-hud="true" data-v-kmh="37.28" data-lean-deg="-17.98" data-sight-m="3.08" data-ssd-m="18.78">37 km/h   lean 18° left   see 3 m · need 19 m to stop · SHORT by 16 m</text><g data-lean-dial="-17.98"><rect x="910" y="18" width="72" height="86" rx="10" fill="#101418" fill-opacity="0.55"/><line x1="920" y1="54" x2="972" y2="54" stroke="#e8e8e8" stroke-width="2" stroke-opacity="0.6"/><line x1="946" y1="54" x2="954.03" y2="29.27" stroke="#e8e8e8" stroke-width="3"/><circle cx="946" cy="54" r="3.5" fill="#e8e8e8"/><text x="946" y="94" font-family="sans-serif" font-size="13" fill="#e8e8e8" text-anchor="middle">18°</text></g><text x="990" y="22" font-family="sans-serif" font-size="14" fill="#e8e8e8" text-anchor="end" data-look-chip="true">look: limit point</text></g></svg>