<svg xmlns="http://www.w3.org/2000/svg" width="1000" height="600" viewBox="0 0 1000 600" data-view="pov" data-look="limit_point"><rect x="0" y="0" width="1000" height="600" fill="#aec6de" data-stage="1-sky"/><polygon points="3500,300 -2500,300 -2500,6300 3500,6300" fill="#7f8f63" data-stage="1-ground"/><g data-stage="2-road-surface"><polygon points="688.07,451.83 654.37,423.5 39.72,422.75 -66.78,450.69" fill="#9a9a9a" stroke="#9a9a9a" stroke-width="0.5"/><polygon points="748.41,502.57 688.07,451.83 -66.78,450.69 -256.74,500.54" fill="#9a9a9a" stroke="#9a9a9a" stroke-width="0.5"/><polygon points="869.3,604.21 748.41,502.57 -256.74,500.54 -634.49,599.67" fill="#9a9a9a" stroke="#9a9a9a" stroke-width="0.5"/><polygon points="1233.75,910.63 869.3,604.21 -634.49,599.67 -1750.74,892.58" fill="#9a9a9a" stroke="#9a9a9a" stroke-width="0.5"/></g><g data-stage="3-lane-markings"><polyline points="1233.75,910.63 869.3,604.21 748.41,502.57 688.07,451.83 654.37,423.5" fill="none" stroke="#e8e8e8" stroke-width="2"/><polyline points="-1750.74,892.58 -634.49,599.67 -256.74,500.54 -66.78,450.69 39.72,422.75" fill="none" stroke="#e8e8e8" stroke-width="2"/><polyline points="-280.88,901.47 111.74,601.92 243.31,501.55 309.22,451.26 346.1,423.12" fill="none" stroke="#e8e8e8" stroke-width="2"/></g><g data-stage="5-sight-band"><polygon points="688.07,451.83 654.37,423.5 39.72,422.75 -66.78,450.69" fill="#ffffff" fill-opacity="0.12" stroke="none"/><polygon points="748.41,502.57 688.07,451.83 -66.78,450.69 -256.74,500.54" fill="#ffffff" fill-opacity="0.12" stroke="none"/><polygon points="869.3,604.21 748.41,502.57 -256.74,500.54 -634.49,599.67" fill="#ffffff" fill-opacity="0.12" stroke="none"/><polygon points="1233.75,910.63 869.3,604.21 -634.49,599.67 -1750.74,892.58" fill="#ffffff" fill-opacity="0.12" stroke="none"/></g><g data-stage="6-path"><polyline points="521.86,1512.65 518.51,1108.41 515.65,906.29 513.25,785.02 511.29,704.18 509.76,646.43 508.65,603.12 507.9,569.44 507.39,542.5 507.06,520.45 506.84,502.08 506.7,486.53 506.62,473.21 506.58,461.66 506.57,451.56 506.59,442.64 506.62,434.72 506.66,427.63 506.69,422.62" fill="none" stroke="#b07d1e" stroke-width="3" stroke-opacity="0.9"/></g><g data-stage="7-limit-marker"><polyline points="486,431.71 500,414.91 514,431.71" fill="none" stroke="#111111" stroke-width="3" stroke-linejoin="round" data-marker="limit_point" data-marker-state="placed" data-trend="steady"/></g><g data-stage="9-rider-anchor"><path d="M 0,566 L 0,520 Q -60,536 170,560 L 170,566 Z" fill="#22262b" fill-opacity="0.9"/><line x1="-35" y1="526" x2="90" y2="486" stroke="#22262b" stroke-width="7" stroke-linecap="round" stroke-opacity="0.9"/><g transform="rotate(-12 90 470)"><rect x="56" y="451" width="68" height="38" rx="12" fill="#22262b" fill-opacity="0.92"/><rect x="62" y="457" width="56" height="26" rx="9" fill="#5b6673" fill-opacity="0.85"/></g><path d="M 1000,566 L 1000,520 Q 1060,536 830,560 L 830,566 Z" fill="#22262b" fill-opacity="0.9"/><line x1="1035" y1="526" x2="910" y2="486" stroke="#22262b" stroke-width="7" stroke-linecap="round" stroke-opacity="0.9"/><g transform="rotate(12 910 470)"><rect x="876" y="451" width="68" height="38" rx="12" fill="#22262b" fill-opacity="0.92"/><rect x="882" y="457" width="56" height="26" rx="9" fill="#5b6673" fill-opacity="0.85"/></g></g><g data-stage="8-hud"><line x1="532.65" y1="290.34" x2="527.51" y2="309.66" stroke="#333333" stroke-width="2" data-heading-tick="true"/><rect x="0" y="566" width="1000" height="34" fill="#101418" fill-opacity="0.72"/><text x="10" y="588" font-family="sans-serif" font-size="15" fill="#f4b3b0" data-hud="true" data-v-kmh="39.73" data-lean-deg="-14.89" data-sight-m="9.89" data-ssd-m="20.42">40 km/h   lean 15° left   see 10 m · need 20 m to stop · SHORT by 11 m</text><g data-lean-dial="-14.89"><rect x="910" y="18" width="72" height="86" rx="10" fill="#101418" fill-opacity="0.55"/><line x1="920" y1="54" x2="972" y2="54" stroke="#e8e8e8" stroke-width="2" stroke-opacity="0.6"/><line x1="946" y1="54" x2="952.68" y2="28.87" stroke="#e8e8e8" stroke-width="3"/><circle cx="946" cy="54" r="3.5" fill="#e8e8e8"/><text x="946" y="94" font-family="sans-serif" font-size="13" fill="#e8e8e8" text-anchor="middle">15°</text></g><text x="990" y="22" font-family="sans-serif" font-size="14" fill="#e8e8e8" text-anchor="end" data-look-chip="true">look: limit point</text></g></svg>